<svg width="110" height="47" viewBox="0 0 110 47" fill="none" xmlns="http://www.w3.org/2000/svg">
<path d="M20.0106 1.008V1.488C19.4666 1.504 19.0586 1.568 18.7866 1.68C18.5146 1.776 18.3306 1.968 18.2346 2.256C18.1546 2.528 18.1146 2.96 18.1146 3.552V15.456C18.1146 16.032 18.1546 16.464 18.2346 16.752C18.3306 17.04 18.5146 17.232 18.7866 17.328C19.0586 17.424 19.4666 17.488 20.0106 17.52V18C19.6106 17.968 19.1146 17.952 18.5226 17.952C17.9306 17.936 17.3306 17.928 16.7226 17.928C16.0506 17.928 15.4186 17.936 14.8266 17.952C14.2346 17.952 13.7626 17.968 13.4106 18V17.52C13.9546 17.488 14.3626 17.424 14.6346 17.328C14.9226 17.232 15.1146 17.04 15.2106 16.752C15.3066 16.464 15.3546 16.032 15.3546 15.456V2.328L15.4746 2.376L9.57059 18.096H9.18659L2.99459 2.544V14.832C2.99459 15.504 3.04259 16.032 3.13859 16.416C3.23459 16.784 3.44259 17.048 3.76259 17.208C4.08259 17.368 4.57059 17.472 5.22659 17.52V18C4.92259 17.968 4.53059 17.952 4.05059 17.952C3.58659 17.936 3.14659 17.928 2.73059 17.928C2.33059 17.928 1.93059 17.936 1.53059 17.952C1.13059 17.952 0.802586 17.968 0.546586 18V17.52C1.07459 17.472 1.47459 17.376 1.74659 17.232C2.01859 17.072 2.20259 16.808 2.29859 16.44C2.39459 16.072 2.44259 15.568 2.44259 14.928V3.552C2.44259 2.96 2.39459 2.528 2.29859 2.256C2.20259 1.968 2.01859 1.776 1.74659 1.68C1.47459 1.568 1.07459 1.504 0.546586 1.488V1.008C0.802586 1.024 1.13059 1.04 1.53059 1.056C1.93059 1.072 2.33059 1.08 2.73059 1.08C3.19459 1.08 3.65859 1.072 4.12259 1.056C4.60259 1.04 5.01059 1.024 5.34659 1.008L10.6506 14.64L10.1946 14.952L15.4026 1.08C15.6106 1.08 15.8266 1.08 16.0506 1.08C16.2746 1.08 16.4986 1.08 16.7226 1.08C17.3306 1.08 17.9306 1.072 18.5226 1.056C19.1146 1.04 19.6106 1.024 20.0106 1.008ZM30.7301 0.912L36.5861 15.984C36.8101 16.576 37.0661 16.976 37.3541 17.184C37.6581 17.392 37.9381 17.504 38.1941 17.52V18C37.8101 17.968 37.3541 17.952 36.8261 17.952C36.3141 17.936 35.7941 17.928 35.2661 17.928C34.5941 17.928 33.9701 17.936 33.3941 17.952C32.8181 17.952 32.3541 17.968 32.0021 18V17.52C32.8181 17.488 33.3301 17.352 33.5381 17.112C33.7621 16.856 33.7141 16.32 33.3941 15.504L29.0741 3.84L29.4581 3.408L25.4741 13.824C25.1861 14.544 25.0101 15.144 24.9461 15.624C24.8981 16.104 24.9381 16.48 25.0661 16.752C25.2101 17.024 25.4501 17.216 25.7861 17.328C26.1221 17.44 26.5381 17.504 27.0341 17.52V18C26.5541 17.968 26.0661 17.952 25.5701 17.952C25.0901 17.936 24.6341 17.928 24.2021 17.928C23.8181 17.928 23.4741 17.936 23.1701 17.952C22.8821 17.952 22.6181 17.968 22.3781 18V17.52C22.7141 17.44 23.0501 17.24 23.3861 16.92C23.7221 16.6 24.0421 16.056 24.3461 15.288L29.9141 0.912C30.0421 0.912 30.1781 0.912 30.3221 0.912C30.4661 0.912 30.6021 0.912 30.7301 0.912ZM33.2501 11.088V11.568H26.0981L26.3381 11.088H33.2501ZM55.4998 1.008V1.488C54.9558 1.52 54.5478 1.616 54.2758 1.776C54.0038 1.936 53.8198 2.2 53.7238 2.568C53.6438 2.92 53.6038 3.424 53.6038 4.08V18.096C53.4758 18.096 53.3478 18.096 53.2198 18.096C53.0918 18.096 52.9558 18.096 52.8118 18.096L42.6358 3.312V14.832C42.6358 15.504 42.6838 16.032 42.7798 16.416C42.8758 16.784 43.0838 17.048 43.4038 17.208C43.7238 17.368 44.2118 17.472 44.8678 17.52V18C44.5638 17.968 44.1718 17.952 43.6918 17.952C43.2278 17.936 42.7878 17.928 42.3718 17.928C41.9718 17.928 41.5718 17.936 41.1718 17.952C40.7718 17.952 40.4438 17.968 40.1878 18V17.52C40.7158 17.472 41.1158 17.376 41.3878 17.232C41.6598 17.072 41.8438 16.808 41.9398 16.44C42.0358 16.072 42.0838 15.568 42.0838 14.928V3.552C42.0838 2.96 42.0358 2.528 41.9398 2.256C41.8438 1.968 41.6598 1.776 41.3878 1.68C41.1158 1.568 40.7158 1.504 40.1878 1.488V1.008C40.4438 1.024 40.7718 1.04 41.1718 1.056C41.5718 1.072 41.9718 1.08 42.3718 1.08C42.7238 1.08 43.0678 1.072 43.4038 1.056C43.7398 1.04 44.0358 1.024 44.2918 1.008L53.0518 13.536V4.176C53.0518 3.488 52.9958 2.96 52.8838 2.592C52.7878 2.224 52.5798 1.96 52.2598 1.8C51.9398 1.624 51.4598 1.52 50.8198 1.488V1.008C51.1078 1.024 51.4918 1.04 51.9718 1.056C52.4518 1.072 52.8998 1.08 53.3158 1.08C53.7158 1.08 54.1158 1.072 54.5158 1.056C54.9158 1.04 55.2438 1.024 55.4998 1.008ZM64.3303 0.719999C65.1783 0.719999 65.8263 0.816 66.2743 1.008C66.7223 1.2 67.1143 1.408 67.4503 1.632C67.6423 1.744 67.7943 1.832 67.9063 1.896C68.0343 1.944 68.1543 1.968 68.2663 1.968C68.4263 1.968 68.5383 1.88 68.6023 1.704C68.6823 1.528 68.7463 1.264 68.7943 0.912H69.3463C69.3303 1.2 69.3063 1.544 69.2743 1.944C69.2583 2.328 69.2423 2.84 69.2263 3.48C69.2263 4.12 69.2263 4.96 69.2263 6H68.6743C68.6263 5.216 68.4503 4.456 68.1463 3.72C67.8583 2.984 67.4263 2.384 66.8503 1.92C66.2903 1.456 65.5703 1.224 64.6903 1.224C63.8743 1.224 63.1943 1.472 62.6503 1.968C62.1223 2.448 61.8583 3.088 61.8583 3.888C61.8583 4.592 62.0343 5.184 62.3863 5.664C62.7383 6.128 63.2183 6.568 63.8263 6.984C64.4503 7.384 65.1543 7.832 65.9383 8.328C66.7383 8.84 67.4583 9.352 68.0983 9.864C68.7383 10.36 69.2423 10.912 69.6103 11.52C69.9783 12.128 70.1623 12.864 70.1623 13.728C70.1623 14.768 69.9143 15.632 69.4183 16.32C68.9383 16.992 68.2903 17.496 67.4743 17.832C66.6583 18.168 65.7623 18.336 64.7863 18.336C63.8903 18.336 63.1783 18.24 62.6503 18.048C62.1223 17.856 61.6743 17.656 61.3063 17.448C60.9543 17.224 60.6823 17.112 60.4903 17.112C60.3303 17.112 60.2103 17.2 60.1303 17.376C60.0663 17.552 60.0103 17.816 59.9623 18.168H59.4103C59.4423 17.816 59.4583 17.408 59.4583 16.944C59.4743 16.464 59.4823 15.84 59.4823 15.072C59.4983 14.304 59.5063 13.336 59.5063 12.168H60.0583C60.1223 13.16 60.2983 14.088 60.5863 14.952C60.8903 15.816 61.3463 16.512 61.9543 17.04C62.5783 17.552 63.4023 17.808 64.4263 17.808C64.9703 17.808 65.4743 17.704 65.9383 17.496C66.4023 17.288 66.7783 16.96 67.0663 16.512C67.3543 16.064 67.4983 15.488 67.4983 14.784C67.4983 14.128 67.3383 13.552 67.0183 13.056C66.7143 12.56 66.2823 12.104 65.7223 11.688C65.1783 11.256 64.5383 10.816 63.8023 10.368C63.0503 9.888 62.3463 9.408 61.6903 8.928C61.0343 8.448 60.5063 7.888 60.1063 7.248C59.7223 6.608 59.5303 5.848 59.5303 4.968C59.5303 3.992 59.7543 3.192 60.2023 2.568C60.6663 1.944 61.2583 1.48 61.9783 1.176C62.7143 0.871999 63.4983 0.719999 64.3303 0.719999ZM80.4508 1.008V1.488C79.9228 1.504 79.5228 1.568 79.2508 1.68C78.9788 1.776 78.7948 1.968 78.6988 2.256C78.6028 2.528 78.5548 2.96 78.5548 3.552V15.456C78.5548 16.032 78.6028 16.464 78.6988 16.752C78.7948 17.04 78.9788 17.232 79.2508 17.328C79.5228 17.424 79.9228 17.488 80.4508 17.52V18C80.0668 17.968 79.5788 17.952 78.9868 17.952C78.4108 17.936 77.8188 17.928 77.2108 17.928C76.5388 17.928 75.9068 17.936 75.3148 17.952C74.7388 17.952 74.2668 17.968 73.8988 18V17.52C74.4428 17.488 74.8508 17.424 75.1228 17.328C75.3948 17.232 75.5708 17.04 75.6508 16.752C75.7468 16.464 75.7948 16.032 75.7948 15.456V3.552C75.7948 2.96 75.7468 2.528 75.6508 2.256C75.5708 1.968 75.3868 1.776 75.0988 1.68C74.8268 1.568 74.4268 1.504 73.8988 1.488V1.008C74.2668 1.024 74.7388 1.04 75.3148 1.056C75.9068 1.072 76.5388 1.08 77.2108 1.08C77.8188 1.08 78.4108 1.072 78.9868 1.056C79.5788 1.04 80.0668 1.024 80.4508 1.008ZM99.3289 1.008V1.488C98.7849 1.52 98.3769 1.616 98.1049 1.776C97.8329 1.936 97.6489 2.2 97.5529 2.568C97.4729 2.92 97.4329 3.424 97.4329 4.08V18.096C97.3049 18.096 97.1769 18.096 97.0489 18.096C96.9209 18.096 96.7849 18.096 96.6409 18.096L86.4649 3.312V14.832C86.4649 15.504 86.5129 16.032 86.6089 16.416C86.7049 16.784 86.9129 17.048 87.2329 17.208C87.5529 17.368 88.0409 17.472 88.6969 17.52V18C88.3929 17.968 88.0009 17.952 87.5209 17.952C87.0569 17.936 86.6169 17.928 86.2009 17.928C85.8009 17.928 85.4009 17.936 85.0009 17.952C84.6009 17.952 84.2729 17.968 84.0169 18V17.52C84.5449 17.472 84.9449 17.376 85.2169 17.232C85.4889 17.072 85.6729 16.808 85.7689 16.44C85.8649 16.072 85.9129 15.568 85.9129 14.928V3.552C85.9129 2.96 85.8649 2.528 85.7689 2.256C85.6729 1.968 85.4889 1.776 85.2169 1.68C84.9449 1.568 84.5449 1.504 84.0169 1.488V1.008C84.2729 1.024 84.6009 1.04 85.0009 1.056C85.4009 1.072 85.8009 1.08 86.2009 1.08C86.5529 1.08 86.8969 1.072 87.2329 1.056C87.5689 1.04 87.8649 1.024 88.1209 1.008L96.8809 13.536V4.176C96.8809 3.488 96.8249 2.96 96.7129 2.592C96.6169 2.224 96.4089 1.96 96.0889 1.8C95.7689 1.624 95.2889 1.52 94.6489 1.488V1.008C94.9369 1.024 95.3209 1.04 95.8009 1.056C96.2809 1.072 96.7289 1.08 97.1449 1.08C97.5449 1.08 97.9449 1.072 98.3449 1.056C98.7449 1.04 99.0729 1.024 99.3289 1.008ZM109.287 1.008V1.488C108.759 1.504 108.359 1.568 108.087 1.68C107.815 1.776 107.631 1.968 107.535 2.256C107.439 2.528 107.391 2.96 107.391 3.552V15.456C107.391 16.032 107.439 16.464 107.535 16.752C107.631 17.04 107.815 17.232 108.087 17.328C108.359 17.424 108.759 17.488 109.287 17.52V18C108.903 17.968 108.415 17.952 107.823 17.952C107.247 17.936 106.655 17.928 106.047 17.928C105.375 17.928 104.743 17.936 104.151 17.952C103.575 17.952 103.103 17.968 102.735 18V17.52C103.279 17.488 103.687 17.424 103.959 17.328C104.231 17.232 104.407 17.04 104.487 16.752C104.583 16.464 104.631 16.032 104.631 15.456V3.552C104.631 2.96 104.583 2.528 104.487 2.256C104.407 1.968 104.223 1.776 103.935 1.68C103.663 1.568 103.263 1.504 102.735 1.488V1.008C103.103 1.024 103.575 1.04 104.151 1.056C104.743 1.072 105.375 1.08 106.047 1.08C106.655 1.08 107.247 1.072 107.823 1.056C108.415 1.04 108.903 1.024 109.287 1.008ZM12.23 28.912L18.086 43.984C18.31 44.576 18.566 44.976 18.854 45.184C19.158 45.392 19.438 45.504 19.694 45.52V46C19.31 45.968 18.854 45.952 18.326 45.952C17.814 45.936 17.294 45.928 16.766 45.928C16.094 45.928 15.47 45.936 14.894 45.952C14.318 45.952 13.854 45.968 13.502 46V45.52C14.318 45.488 14.83 45.352 15.038 45.112C15.262 44.856 15.214 44.32 14.894 43.504L10.574 31.84L10.958 31.408L6.97399 41.824C6.68599 42.544 6.50999 43.144 6.44599 43.624C6.39799 44.104 6.43799 44.48 6.56599 44.752C6.70999 45.024 6.94999 45.216 7.28599 45.328C7.62199 45.44 8.03799 45.504 8.53399 45.52V46C8.05399 45.968 7.56599 45.952 7.06999 45.952C6.58999 45.936 6.13399 45.928 5.70199 45.928C5.31799 45.928 4.97399 45.936 4.66999 45.952C4.38199 45.952 4.11799 45.968 3.87799 46V45.52C4.21399 45.44 4.54999 45.24 4.88599 44.92C5.22199 44.6 5.54199 44.056 5.84599 43.288L11.414 28.912C11.542 28.912 11.678 28.912 11.822 28.912C11.966 28.912 12.102 28.912 12.23 28.912ZM14.75 39.088V39.568H7.59799L7.83799 39.088H14.75ZM35.4376 29.008V29.488C35.1176 29.568 34.7736 29.784 34.4056 30.136C34.0536 30.488 33.7256 31.056 33.4216 31.84L27.9736 46.096C27.9096 46.096 27.8456 46.096 27.7816 46.096C27.7176 46.096 27.6456 46.096 27.5656 46.096C27.5016 46.096 27.4376 46.096 27.3736 46.096C27.3096 46.096 27.2456 46.096 27.1816 46.096L21.2296 31.024C20.9896 30.432 20.7256 30.032 20.4376 29.824C20.1496 29.616 19.8776 29.504 19.6216 29.488V29.008C19.9896 29.024 20.4376 29.04 20.9656 29.056C21.5096 29.072 22.0376 29.08 22.5496 29.08C23.2056 29.08 23.8216 29.072 24.3976 29.056C24.9896 29.04 25.4616 29.024 25.8136 29.008V29.488C25.2856 29.504 24.8776 29.568 24.5896 29.68C24.3016 29.792 24.1416 29.992 24.1096 30.28C24.0936 30.552 24.1896 30.96 24.3976 31.504L28.8376 43.096L28.4056 43.576L32.2936 33.352C32.6616 32.376 32.8456 31.616 32.8456 31.072C32.8456 30.512 32.6696 30.112 32.3176 29.872C31.9656 29.632 31.4536 29.504 30.7816 29.488V29.008C31.2776 29.024 31.7656 29.04 32.2456 29.056C32.7256 29.072 33.1816 29.08 33.6136 29.08C34.0136 29.08 34.3576 29.072 34.6456 29.056C34.9336 29.04 35.1976 29.024 35.4376 29.008ZM45.5667 28.672C47.1347 28.672 48.5107 29.016 49.6947 29.704C50.8947 30.392 51.8227 31.384 52.4787 32.68C53.1347 33.96 53.4627 35.52 53.4627 37.36C53.4627 39.152 53.1267 40.72 52.4547 42.064C51.7827 43.408 50.8467 44.456 49.6467 45.208C48.4467 45.96 47.0787 46.336 45.5427 46.336C43.9587 46.336 42.5747 45.992 41.3907 45.304C40.2067 44.616 39.2867 43.624 38.6307 42.328C37.9747 41.032 37.6467 39.472 37.6467 37.648C37.6467 35.856 37.9827 34.288 38.6547 32.944C39.3427 31.6 40.2787 30.552 41.4627 29.8C42.6467 29.048 44.0147 28.672 45.5667 28.672ZM45.4707 29.104C44.4787 29.104 43.6147 29.464 42.8787 30.184C42.1427 30.904 41.5747 31.896 41.1747 33.16C40.7747 34.424 40.5747 35.888 40.5747 37.552C40.5747 39.248 40.7987 40.728 41.2467 41.992C41.6947 43.24 42.3027 44.208 43.0707 44.896C43.8387 45.568 44.6947 45.904 45.6387 45.904C46.6307 45.904 47.4867 45.544 48.2067 44.824C48.9427 44.104 49.5107 43.112 49.9107 41.848C50.3267 40.568 50.5347 39.104 50.5347 37.456C50.5347 35.744 50.3027 34.264 49.8387 33.016C49.3907 31.768 48.7827 30.808 48.0147 30.136C47.2627 29.448 46.4147 29.104 45.4707 29.104ZM65.4342 28.672C66.4902 28.672 67.3542 28.832 68.0262 29.152C68.7142 29.456 69.3222 29.816 69.8502 30.232C70.1702 30.472 70.4102 30.504 70.5702 30.328C70.7462 30.136 70.8662 29.696 70.9302 29.008H71.4822C71.4502 29.616 71.4262 30.352 71.4102 31.216C71.3942 32.064 71.3862 33.2 71.3862 34.624H70.8342C70.7222 33.92 70.6102 33.344 70.4982 32.896C70.4022 32.448 70.2662 32.064 70.0902 31.744C69.9302 31.424 69.7062 31.112 69.4182 30.808C68.9542 30.232 68.3862 29.816 67.7142 29.56C67.0422 29.304 66.3302 29.176 65.5782 29.176C64.7622 29.176 64.0422 29.384 63.4182 29.8C62.7942 30.2 62.2662 30.776 61.8342 31.528C61.4182 32.28 61.0982 33.168 60.8742 34.192C60.6502 35.216 60.5382 36.336 60.5382 37.552C60.5382 38.8 60.6582 39.936 60.8982 40.96C61.1382 41.968 61.4822 42.84 61.9302 43.576C62.3942 44.296 62.9462 44.856 63.5862 45.256C64.2422 45.64 64.9702 45.832 65.7702 45.832C66.4262 45.832 67.1062 45.704 67.8102 45.448C68.5142 45.176 69.0742 44.768 69.4902 44.224C69.9382 43.744 70.2422 43.208 70.4022 42.616C70.5782 42.008 70.7222 41.184 70.8342 40.144H71.3862C71.3862 41.616 71.3942 42.808 71.4102 43.72C71.4262 44.616 71.4502 45.376 71.4822 46H70.9302C70.8662 45.312 70.7542 44.88 70.5942 44.704C70.4502 44.528 70.2022 44.552 69.8502 44.776C69.2582 45.192 68.6262 45.56 67.9542 45.88C67.2982 46.184 66.4502 46.336 65.4102 46.336C63.8262 46.336 62.4422 45.992 61.2582 45.304C60.0742 44.616 59.1542 43.624 58.4982 42.328C57.8422 41.032 57.5142 39.472 57.5142 37.648C57.5142 35.856 57.8502 34.288 58.5222 32.944C59.2102 31.6 60.1462 30.552 61.3302 29.8C62.5142 29.048 63.8822 28.672 65.4342 28.672ZM82.7703 28.912L88.6263 43.984C88.8503 44.576 89.1063 44.976 89.3943 45.184C89.6983 45.392 89.9783 45.504 90.2343 45.52V46C89.8503 45.968 89.3943 45.952 88.8663 45.952C88.3543 45.936 87.8343 45.928 87.3063 45.928C86.6343 45.928 86.0103 45.936 85.4343 45.952C84.8583 45.952 84.3943 45.968 84.0423 46V45.52C84.8583 45.488 85.3703 45.352 85.5783 45.112C85.8023 44.856 85.7543 44.32 85.4343 43.504L81.1143 31.84L81.4983 31.408L77.5143 41.824C77.2263 42.544 77.0503 43.144 76.9863 43.624C76.9383 44.104 76.9783 44.48 77.1063 44.752C77.2503 45.024 77.4903 45.216 77.8263 45.328C78.1623 45.44 78.5783 45.504 79.0743 45.52V46C78.5943 45.968 78.1063 45.952 77.6103 45.952C77.1303 45.936 76.6743 45.928 76.2423 45.928C75.8583 45.928 75.5143 45.936 75.2103 45.952C74.9223 45.952 74.6583 45.968 74.4183 46V45.52C74.7543 45.44 75.0903 45.24 75.4263 44.92C75.7623 44.6 76.0823 44.056 76.3863 43.288L81.9543 28.912C82.0823 28.912 82.2183 28.912 82.3623 28.912C82.5063 28.912 82.6423 28.912 82.7703 28.912ZM85.2903 39.088V39.568H78.1383L78.3783 39.088H85.2903ZM105.017 29.008C104.953 29.68 104.905 30.336 104.873 30.976C104.857 31.6 104.849 32.08 104.849 32.416C104.849 32.784 104.857 33.136 104.873 33.472C104.889 33.808 104.905 34.096 104.921 34.336H104.369C104.209 33.136 103.993 32.192 103.721 31.504C103.465 30.816 103.089 30.32 102.593 30.016C102.097 29.712 101.385 29.56 100.457 29.56H99.4248V43.24C99.4248 43.88 99.4808 44.36 99.5928 44.68C99.7208 45 99.9608 45.216 100.313 45.328C100.681 45.424 101.209 45.488 101.897 45.52V46C101.449 45.968 100.873 45.952 100.169 45.952C99.4648 45.936 98.7448 45.928 98.0088 45.928C97.2408 45.928 96.5128 45.936 95.8248 45.952C95.1528 45.952 94.6088 45.968 94.1928 46V45.52C94.8808 45.488 95.4008 45.424 95.7528 45.328C96.1048 45.216 96.3448 45 96.4728 44.68C96.6008 44.36 96.6648 43.88 96.6648 43.24V29.56H95.6088C94.7128 29.56 94.0088 29.712 93.4968 30.016C92.9848 30.32 92.6008 30.816 92.3448 31.504C92.0888 32.192 91.8808 33.136 91.7208 34.336H91.1688C91.2008 34.096 91.2168 33.808 91.2168 33.472C91.2328 33.136 91.2408 32.784 91.2408 32.416C91.2408 32.08 91.2248 31.6 91.1928 30.976C91.1768 30.336 91.1368 29.68 91.0728 29.008C91.7608 29.024 92.5128 29.04 93.3288 29.056C94.1448 29.072 94.9688 29.08 95.8008 29.08C96.6328 29.08 97.3848 29.08 98.0568 29.08C98.7288 29.08 99.4728 29.08 100.289 29.08C101.105 29.08 101.929 29.072 102.761 29.056C103.593 29.04 104.345 29.024 105.017 29.008Z" fill="black"/>
</svg>
